Coordinates
version=1
nRows=11
nColumns=36
inDegrees=yes

Units are S.I. units (second, meters, Newtons, ...)
If the header above contains a line with 'inDegrees', this indicates whether rotational values are in degrees (yes) or radians (no).

endheader
time	pelvis_tilt	pelvis_list	pelvis_rotation	pelvis_tx	pelvis_ty	pelvis_tz	hip_flexion_r	hip_adduction_r	hip_rotation_r	knee_angle_r	knee_angle_r_beta	ankle_angle_r	subtalar_angle_r	mtp_angle_r	hip_flexion_l	hip_adduction_l	hip_rotation_l	knee_angle_l	knee_angle_l_beta	ankle_angle_l	subtalar_angle_l	mtp_angle_l	lumbar_extension	lumbar_bending	lumbar_rotation	arm_flex_r	arm_add_r	arm_rot_r	elbow_flex_r	pro_sup_r	arm_flex_l	arm_add_l	arm_rot_l	elbow_flex_l	pro_sup_l
      0.00000000	      5.21557545	     -2.97348519	     -1.25549958	     -0.92559669	      1.27383209	     -0.08944287	     -3.88577125	      2.72951814	     -3.12071039	      7.51793547	      0.13121273	      4.75934069	    -15.76379134	     -5.98864284	     -9.01976665	     -3.78011614	      1.84203987	      2.27263374	      0.03966494	      8.02081008	     -6.41660392	     -5.98864284	    -11.20330632	      0.95571009	     -2.11351947	      7.31103231	     -7.51831870	     18.28571590	     21.26472592	     74.91306175	      1.73383182	     -7.69532556	     15.34625729	     22.50123483	     67.36467815
      0.00416670	      4.55733798	     -2.66076856	     -0.55721193	     -0.92358479	      1.27234342	     -0.08984679	     -3.33513408	      3.05801162	     -1.64562397	      7.89788988	      0.13784418	      6.74886991	    -15.14469400	     -6.72411649	     -8.25805517	     -3.36358146	      3.50267480	      1.88063337	      0.03282324	      7.15520568	     -7.02146079	     -6.72411649	    -10.06820771	      0.52667786	     -2.51064608	      6.27535706	     -6.20271611	      9.44720797	     21.62598454	     82.13844124	      1.63096420	     -6.74916469	      8.66372147	     22.11536284	     71.78225025
      0.00833330	      3.71409409	     -2.10052891	     -0.57268524	     -0.92287882	      1.27251893	     -0.08932576	     -2.65796872	      2.69435737	     -1.75110843	      7.35193736	      0.12831551	      6.72351461	    -15.20412259	     -6.90383015	     -7.25482304	     -2.78937795	      3.95841969	      1.96278527	      0.03425707	      7.01351391	     -7.00225940	     -6.90383015	     -9.08488950	     -0.39695615	     -2.35653958	      5.68044419	     -5.46946023	      7.48421686	     21.90552414	     79.95710983	      1.75670969	     -7.01752787	      8.27271910	     22.06159515	     70.63291217
      0.01250000	      4.39878393	     -2.00313489	     -0.47765191	     -0.92218792	      1.27320200	     -0.09062485	     -3.63643225	      2.45455635	     -2.51195765	      6.98034381	      0.12182998	      6.45447580	    -15.50047843	     -7.00373671	     -8.24255649	     -2.60322571	      4.08117975	      1.47672068	      0.02577364	      7.23720131	     -6.60505082	     -7.00373671	    -10.04989999	     -0.57215012	     -2.25922743	      5.65084262	     -5.28334899	      6.72866416	     22.18693399	     78.70778332	      1.99682280	     -7.20406998	      8.38716465	     22.28492818	     70.07995699
      0.01666670	      4.49353093	     -1.88251624	     -0.38437427	     -0.92179743	      1.27405061	     -0.09074926	     -3.93056620	      2.35063744	     -2.56851715	      6.66139992	      0.11626336	      5.81479761	    -16.38761059	     -7.31376733	     -8.52891614	     -2.41962080	      4.72654017	      1.16654547	      0.02036006	      7.26640574	     -7.29559068	     -7.31376733	    -10.32924428	     -0.67973690	     -1.86238578	      4.99268632	     -5.13578203	      3.82852622	     23.20261299	     83.84133233	      2.36111512	     -7.42945611	      9.94221401	     22.43407512	     73.02508034
      0.02083330	      4.67486634	     -1.76538208	     -0.23325702	     -0.92119423	      1.27784698	     -0.09090600	     -4.32142620	      2.28134414	     -2.23757151	      6.26909379	      0.10941633	      5.54691045	    -16.50280561	     -7.40606384	     -8.79688289	     -2.28529351	      5.12247945	      1.07059019	      0.01868532	      7.30716346	     -7.64501423	     -7.40606384	    -10.53046860	     -0.79169526	     -1.89210171	      4.99287086	     -5.26941200	      5.49642041	     23.15300778	     79.83332391	      2.53477977	     -7.49626671	     11.16724962	     22.51176828	     70.81643296
      0.02500000	      4.77338750	     -1.70879588	     -0.17905464	     -0.92128998	      1.27168454	     -0.09099657	     -4.50428264	      2.21394508	     -2.12680411	      6.15732359	      0.10746557	      5.61619775	    -16.52614083	     -7.42522890	     -8.89242528	     -2.21670226	      5.50334185	      1.07208219	      0.01871136	      7.47914238	     -8.07083491	     -7.42522890	    -10.59730842	     -0.81910543	     -1.88187785	      5.04710283	     -5.37819087	      5.94154334	     23.06224376	     81.61150430	      2.67889250	     -7.55506922	     11.82174114	     22.64907123	     72.14013213
      0.02916670	      4.86548903	     -1.66337662	     -0.18200409	     -0.92002578	      1.27196259	     -0.09100959	     -4.75294660	      2.15964951	     -2.03666732	      6.03139940	      0.10526778	      5.34215053	    -16.98970338	     -7.47327075	     -9.04681279	     -2.16787843	      5.74308808	      1.04690533	      0.01827195	      7.57571708	     -8.54727406	     -7.47327075	    -10.61258796	     -0.88156597	     -1.87719986	      4.94419965	     -5.27410342	      4.74736181	     23.19676445	     84.47306771	      2.64307833	     -7.38368159	     10.64823943	     22.91333752	     74.23584258
      0.03333330	      4.75039431	     -1.56070190	     -0.10115797	     -0.91875929	      1.27348755	     -0.08957954	     -4.78092315	      2.14220206	     -1.46428781	      5.83723857	      0.10187903	      5.47634994	    -16.99207504	     -7.48404489	     -8.96341401	     -2.10231377	      6.17080399	      1.06529334	      0.01859288	      7.50154184	     -9.09476675	     -7.48404489	    -10.28818272	     -1.03870322	     -1.96854649	      4.84028980	     -5.33754532	      5.95105514	     23.12045461	     81.63559342	      2.60786730	     -7.46118678	     11.25700455	     22.97688747	     72.33604895
      0.03750000	      4.78267607	     -1.59234142	     -0.06817048	     -0.92001846	      1.26777180	     -0.08998042	     -4.92259105	      2.18737608	     -1.28588107	      5.74871819	      0.10033406	      5.58159188	    -16.98858352	     -7.49020271	     -8.96847024	     -2.13545717	      6.46028192	      1.10167790	      0.01922791	      7.70685721	     -9.31635012	     -7.49020271	    -10.21921897	     -1.01166192	     -1.99011545	      4.81796588	     -5.29793391	      5.45537956	     23.11038048	     84.75484675	      2.59939638	     -7.42823246	     10.54097841	     23.20658624	     74.33287630
      0.04166670	      4.72087413	     -1.58958860	     -0.16429374	     -0.92091938	      1.26875013	     -0.09009463	     -4.86049366	      2.20264119	     -0.86832623	      5.72759144	      0.09996533	      5.53078834	    -17.37332572	     -7.49398491	     -8.88822069	     -2.10399474	      6.58513479	      1.10470872	      0.01928080	      7.88772203	     -9.36667783	     -7.49398491	    -10.04562627	     -1.02921085	     -1.95400648	      4.82790977	     -5.39251296	      6.36081599	     23.29745149	     81.32157054	      2.62825559	     -7.47615804	     10.90961321	     23.37283057	     72.33373693
